<?xml version="1.0" standalone="no"?>
<!DOCTYPE svg PUBLIC "-//W3C//DTD SVG 20010904//EN"
 "http://www.w3.org/TR/2001/REC-SVG-20010904/DTD/svg10.dtd">
<svg version="1.0" xmlns="http://www.w3.org/2000/svg"
 width="225.000000pt" height="225.000000pt" viewBox="0 0 225.000000 225.000000"
 preserveAspectRatio="xMidYMid meet">
<metadata>
Created by potrace 1.10, written by Peter Selinger 2001-2011
</metadata>
<g transform="translate(0.000000,225.000000) scale(0.050000,-0.050000)"
fill="#ffffff" stroke="none">
<path d="M1940 4394 c-278 -78 -583 -473 -693 -898 l-35 -134 -161 -49 c-88
-27 -200 -61 -248 -75 -111 -32 -112 -36 -163 -448 -24 -187 -78 -614 -121
-950 -44 -335 -93 -722 -109 -860 -17 -137 -36 -292 -42 -344 l-13 -93 78 -14
c42 -7 235 -43 427 -79 193 -37 526 -99 740 -140 215 -40 503 -94 640 -121
138 -26 325 -61 416 -78 l166 -31 594 131 c773 169 735 159 731 181 -9 48
-167 1111 -178 1198 -7 55 -38 267 -70 470 -31 204 -94 631 -140 950 -47 319
-89 584 -93 590 -5 5 -90 15 -188 22 l-180 13 -146 142 c-144 139 -148 141
-214 121 -38 -12 -83 -26 -100 -31 -23 -7 -37 6 -47 46 -41 168 -214 344 -355
361 -58 8 -107 30 -150 71 -75 72 -202 89 -346 49z m212 -138 c9 -13 3 -28
-11 -32 -121 -41 -292 -279 -373 -522 l-63 -188 -154 -48 c-85 -27 -159 -45
-164 -40 -21 21 148 394 242 533 152 227 459 401 523 297z m382 -181 c58 -62
146 -212 146 -252 0 -10 -29 -23 -65 -30 -36 -6 -84 -17 -107 -24 -40 -11 -43
-3 -54 134 -6 81 -17 167 -25 192 -20 67 31 57 105 -20z m-237 -68 c13 -63 23
-157 23 -210 l0 -95 -85 -22 c-275 -71 -356 -114 -333 -175 47 -125 458 16
482 165 6 39 32 69 60 70 8 0 10 -13 3 -30 -6 -16 -1 -30 11 -30 12 0 22 -13
22 -29 0 -66 191 4 221 81 15 41 28 47 81 38 40 -7 80 0 110 20 l48 31 0 -146
c0 -80 -13 -433 -30 -785 -16 -352 -47 -1072 -69 -1600 -22 -528 -46 -999 -52
-1046 l-12 -85 -60 50 c-33 28 -84 56 -114 62 -29 6 -81 19 -114 30 -34 10
-86 19 -115 19 -30 0 -54 9 -54 20 0 11 -19 20 -42 20 -49 0 -404 67 -603 113
-132 31 -196 67 -119 67 60 0 352 100 368 126 7 12 20 16 28 9 8 -8 39 12 70
43 30 32 59 54 64 50 12 -12 114 124 114 152 0 12 8 17 17 12 48 -30 109 198
118 435 12 301 -34 409 -277 648 -86 84 -151 160 -146 169 6 8 -5 10 -23 3
-24 -10 -31 -3 -26 24 8 40 112 77 146 51 114 -88 359 65 411 256 13 52 29 79
38 66 8 -13 15 10 16 51 1 41 8 112 16 157 56 322 -663 414 -1079 138 -108
-72 -311 -275 -311 -312 0 -10 1 -24 1 -32 1 -8 -19 -22 -45 -32 -27 -11 -36
-22 -21 -28 30 -11 34 -86 5 -86 -11 0 -20 11 -20 24 0 18 -6 18 -25 -1 -16
-16 -17 -30 -5 -39 31 -22 34 -63 12 -162 -31 -147 -45 -275 -25 -245 24 36
49 -63 32 -124 -8 -30 -6 -35 7 -16 24 34 49 -1 32 -44 -6 -17 -2 -43 10 -57
11 -14 67 -82 122 -151 56 -69 115 -125 131 -125 16 0 29 -18 29 -40 0 -39 -2
-40 -75 -7 -41 18 -97 33 -123 32 -34 -1 -40 4 -21 16 56 34 0 41 -70 8 -71
-34 -191 -164 -199 -217 -2 -15 -15 -42 -29 -59 -46 -54 -53 -239 -12 -305 53
-85 173 -208 192 -196 9 5 11 -5 4 -23 -11 -28 -5 -31 32 -19 30 9 42 7 33 -6
-7 -12 11 -25 43 -30 39 -6 30 -9 -30 -11 -72 -3 -130 -43 -62 -43 13 0 18 -5
12 -12 -7 -7 -24 -5 -38 4 -14 9 -44 17 -66 18 -130 8 -145 14 -81 31 42 12
24 14 -57 6 -131 -12 -197 23 -178 95 5 22 -5 56 -24 77 -19 21 -30 46 -24 56
6 10 16 76 22 146 6 71 20 132 31 136 11 3 20 35 20 70 0 35 32 248 72 473 40
226 75 437 78 470 3 33 11 74 17 90 12 34 59 308 63 371 1 22 18 70 36 107 18
37 28 76 21 88 -8 11 -3 14 9 6 13 -7 43 11 68 41 25 29 62 70 81 90 19 21 35
45 35 54 0 25 71 85 87 73 7 -5 9 -4 4 2 -29 40 135 198 206 199 195 4 345 81
373 192 7 28 33 61 57 72 29 13 56 57 78 129 43 136 135 276 241 366 105 90
104 90 131 -43z m907 -537 c78 -49 95 -71 96 -120 0 -42 6 -52 18 -33 10 16
17 -129 18 -347 0 -213 8 -380 19 -388 10 -7 20 -183 21 -401 2 -248 11 -393
25 -401 12 -8 21 -91 21 -202 0 -103 2 -210 3 -238 1 -27 0 -77 -4 -110 -11
-124 2 -267 19 -200 12 46 16 29 18 -76 1 -80 -6 -132 -17 -125 -10 6 -24 2
-31 -9 -7 -12 -1 -19 14 -15 20 4 27 -33 29 -150 1 -85 -5 -155 -15 -155 -10
0 -18 -16 -18 -36 0 -35 -115 -76 -325 -118 -30 -6 -55 -19 -55 -28 0 -10 -20
-18 -45 -18 -36 1 -39 4 -15 20 20 13 22 19 5 20 -31 0 -34 671 -5 1290 10
231 33 735 50 1120 17 385 35 721 41 746 12 53 7 54 133 -26z m310 -108 c16
-38 26 -88 21 -111 -4 -24 4 -54 18 -68 18 -16 23 -57 17 -125 -7 -75 -2 -109
21 -132 17 -17 27 -43 21 -58 -6 -14 -1 -79 11 -142 11 -64 24 -152 28 -196 4
-44 25 -192 46 -330 22 -137 60 -396 85 -574 25 -178 50 -321 56 -317 7 4 10
-50 7 -121 -2 -78 4 -128 17 -128 11 0 15 -8 9 -19 -6 -10 -4 -23 5 -29 9 -5
16 -65 16 -131 -1 -67 5 -121 13 -121 8 0 15 -49 15 -110 0 -124 -29 -155
-169 -179 -44 -8 -113 -32 -155 -53 -42 -21 -77 -32 -79 -23 -4 29 -10 116
-24 385 -8 149 -19 338 -24 420 -15 248 -48 854 -60 1110 -6 132 -15 290 -19
350 -4 61 -13 275 -21 478 l-15 368 66 -38 c36 -21 78 -69 94 -106z m-2154 19
c0 -24 -16 -32 -90 -49 l-60 -13 47 41 c50 42 103 53 103 21z m-303 -279 c-79
-120 -138 -186 -178 -202 -33 -14 -64 -44 -69 -68 -4 -23 -23 -118 -42 -212
-45 -235 -125 -576 -127 -543 -7 134 146 899 195 976 10 16 320 224 337 227 1
0 -51 -80 -116 -178z m1169 -190 c64 -15 120 -31 125 -36 14 -15 -145 -486
-164 -486 -9 0 -77 17 -150 38 -227 63 -401 7 -428 -137 -18 -94 8 -129 199
-279 313 -244 384 -371 368 -659 -14 -260 -126 -451 -326 -560 -210 -113 -698
-26 -868 155 l-48 51 56 189 56 190 62 -48 c447 -341 737 -30 304 326 -628
515 -21 1452 814 1256z"/>
</g>
</svg>
