 <svg  version="1.0" xmlns="http://www.w3.org/2000/svg"  width="256.000000pt" height="256.000000pt" viewBox="0 0 256.000000 256.000000"  preserveAspectRatio="xMidYMid meet">  <g transform="translate(0.000000,256.000000) scale(0.100000,-0.100000)" fill="#ffffff" stroke="none"> <path d="M470 2514 c-105 -27 -180 -72 -266 -158 -122 -123 -174 -246 -174 -416 0 -165 53 -292 170 -411 134 -136 250 -179 493 -179 l147 0 0 119 0 119 -152 4 c-139 3 -158 6 -209 30 -79 36 -133 89 -171 166 -29 59 -33 76 -33 152 0 71 4 94 26 141 37 79 90 133 167 171 59 29 76 33 152 33 71 0 94 -4 141 -26 79 -37 133 -90 171 -167 l33 -67 3 -407 3 -408 -213 0 c-238 0 -299 -10 -407 -63 -46 -22 -90 -56 -146 -112 -124 -123 -175 -246 -175 -415 0 -170 52 -293 174 -416 122 -122 246 -174 414 -174 169 0 296 53 417 175 136 136 175 243 175 488 l0 147 -119 0 -119 0 -4 -153 c-3 -138 -6 -157 -30 -208 -36 -79 -89 -133 -166 -171 -59 -29 -76 -33 -152 -33 -76 0 -93 4 -152 33 -77 38 -130 92 -167 171 -22 47 -26 70 -26 141 0 76 4 93 33 152 38 77 92 130 171 167 l56 26 408 3 407 3 0 -213 c0 -238 9 -295 62 -405 44 -92 168 -216 258 -260 90 -44 173 -63 272 -63 168 0 291 52 413 175 123 123 175 245 175 415 0 101 -27 209 -72 290 -47 82 -169 198 -251 238 -101 49 -172 62 -339 62 l-148 0 0 -119 0 -119 153 -4 c149 -3 154 -4 219 -36 77 -38 130 -92 167 -171 22 -47 26 -70 26 -141 0 -71 -4 -94 -26 -141 -37 -79 -90 -133 -167 -171 -59 -29 -76 -33 -152 -33 -76 0 -93 4 -152 33 -77 38 -130 92 -167 171 l-26 56 -3 408 -3 407 213 0 c242 0 297 9 411 66 51 26 94 58 147 113 117 118 170 248 170 413 0 168 -52 292 -174 414 -123 122 -246 174 -416 174 -170 0 -292 -51 -415 -175 -136 -136 -175 -244 -175 -487 l0 -148 119 0 119 0 4 153 c3 139 5 157 29 208 37 79 90 133 167 171 59 29 76 33 152 33 76 0 93 -4 152 -33 77 -38 130 -92 167 -171 22 -47 26 -70 26 -141 0 -76 -4 -93 -33 -152 -38 -77 -92 -130 -171 -167 l-56 -26 -407 -3 -408 -3 0 213 c0 152 -4 231 -15 276 -49 206 -222 382 -430 437 -74 19 -221 19 -295 -1z m875 -1234 l0 -65 -65 0 -65 0 -3 54 c-5 80 -2 82 70 79 l63 -3 0 -65z"/> </g> </svg> 